<svg xmlns="http://www.w3.org/2000/svg" viewBox="0 0 256.25 256.25"><path d="M322.84,344a90.84,90.84,0,0,1-44.68-169.94l16.27,28.75a57.81,57.81,0,1,0,57.3,100.43l16.55,28.59A90.84,90.84,0,0,1,322.84,344Z" transform="translate(-231.88 -87.88)" style="fill:#ff00bf;stroke:#7f7f7f;stroke-miterlimit:10;stroke-width:0.25px"/><path d="M397.16,344a90.94,90.94,0,0,1-90.84-90.84,88.59,88.59,0,0,1,.81-11.82l32.73,4.49a53.23,53.23,0,0,0-.51,7.33A57.81,57.81,0,1,0,425.93,203l16.48-28.63A90.85,90.85,0,0,1,397.16,344Z" transform="translate(-231.88 -87.88)" style="fill:#bfff00;stroke:#7f7f7f;stroke-miterlimit:10;stroke-width:0.25px"/><path d="M360,269.68a90.84,90.84,0,1,1,90.84-90.84A90.94,90.94,0,0,1,360,269.68ZM360,121a57.81,57.81,0,1,0,57.81,57.81A57.87,57.87,0,0,0,360,121Z" transform="translate(-231.88 -87.88)" style="fill:#00bfff;stroke:#7f7f7f;stroke-miterlimit:10;stroke-width:0.25px"/><path d="M357.94,174.71" transform="translate(-231.88 -87.88)" style="fill:none;stroke:#000;stroke-miterlimit:10;stroke-width:16px"/></svg>